<svg xmlns="http://www.w3.org/2000/svg" viewBox="0 0 24 24"><g fill="none" fill-rule="evenodd"><path fill="#4285F4" d="M23.52 12.2727273c0-.8509091-.0763636-1.6690909-.2181818-2.45454548H12V14.46h6.4581818c-.2781818 1.5-1.1236363 2.7709091-2.3945454 3.6218182v3.0109091h3.8781818c2.2690909-2.0890909 3.5781818-5.1654546 3.5781818-8.82z"/><path fill="#34A853" d="M12 24c3.24 0 5.9563636-1.0745455 7.9418182-2.9072727l-3.8781818-3.0109091c-1.0745455.72-2.4490909 1.1454545-4.0636364 1.1454545-3.12545455 0-5.77090909-2.1109091-6.71454545-4.9472727H1.27636364v3.1090909C3.25090909 21.3109091 7.30909091 24 12 24z"/><path fill="#FBBC05" d="M5.28545455 14.28c-.24-.72-.37636364-1.4890909-.37636364-2.28 0-.7909091.13636364-1.56.37636364-2.28V6.61090909H1.27636364C.46363636 8.23090909 0 10.0636364 0 12s.46363636 3.7690909 1.27636364 5.3890909L5.28545455 14.28z"/><path fill="#EA4335" d="M12 4.77272727c1.7618182 0 3.3436364.60545455 4.5872727 1.79454546l3.4418182-3.44181818C17.9509091 1.18909091 15.2345455 0 12 0 7.30909091 0 3.25090909 2.68909091 1.27636364 6.61090909L5.28545455 9.72C6.22909091 6.88363636 8.87454545 4.77272727 12 4.77272727z"/></g></svg>